<svg xmlns="http://www.w3.org/2000/svg" viewBox="0 0 1200 1500" role="img" aria-labelledby="title desc">
  <title id="title">Ivory Cashmere Sweater</title>
  <desc id="desc">Premium women's cashmere sweater in ivory.</desc>
  <defs>
    <linearGradient id="bg" x1="0" y1="0" x2="0" y2="1">
      <stop offset="0%" stop-color="#f9f6f0"/>
      <stop offset="100%" stop-color="#ece4d9"/>
    </linearGradient>
    <linearGradient id="frame" x1="0" y1="0" x2="1" y2="1">
      <stop offset="0%" stop-color="#ffffff"/>
      <stop offset="100%" stop-color="#f5efe8"/>
    </linearGradient>
    <linearGradient id="fabric" x1="0" y1="0" x2="1" y2="1">
      <stop offset="0%" stop-color="#fffdf9"/>
      <stop offset="55%" stop-color="#f4eee4"/>
      <stop offset="100%" stop-color="#d8cabb"/>
    </linearGradient>
    <linearGradient id="fabricSoft" x1="0" y1="0" x2="0" y2="1">
      <stop offset="0%" stop-color="#ffffff" stop-opacity="0.85"/>
      <stop offset="100%" stop-color="#d1c1ad" stop-opacity="0.35"/>
    </linearGradient>
  </defs>
  <rect width="1200" height="1500" fill="url(#bg)"/>
  <rect x="88" y="88" width="1024" height="1324" rx="44" fill="url(#frame)" stroke="#d9cebf" stroke-width="4"/>
  <ellipse cx="600" cy="1096" rx="264" ry="64" fill="#b39d88" opacity="0.18"/>
  <g transform="translate(234 226)">
    <path d="M194 132c30-47 80-74 147-74h76c67 0 117 27 147 74l108 166-98 76-58-92v712H242V282l-58 92-98-76z" fill="url(#fabric)" stroke="#c8b7a4" stroke-width="7" stroke-linejoin="round"/>
    <path d="M340 62c0 72 0 112-24 176 45 50 69 104 69 156s-24 106-69 156c24 64 24 104 24 176" fill="none" stroke="#e9dfd1" stroke-width="10" opacity="0.75"/>
    <path d="M514 292l108-166" fill="none" stroke="#cfbeab" stroke-width="7" stroke-linecap="round"/>
    <path d="M174 292L66 126" fill="none" stroke="#cfbeab" stroke-width="7" stroke-linecap="round"/>
    <path d="M286 506h218" stroke="#d2c2b0" stroke-width="10" opacity="0.75"/>
    <path d="M286 670h218" stroke="#dccfbe" stroke-width="10" opacity="0.52"/>
    <path d="M286 834h218" stroke="#e8ded0" stroke-width="10" opacity="0.32"/>
    <path d="M286 998h218" stroke="#efe8de" stroke-width="10" opacity="0.22"/>
    <path d="M236 284c28 10 64 16 104 16h108c40 0 76-6 104-16" fill="none" stroke="url(#fabricSoft)" stroke-width="18" stroke-linecap="round" opacity="0.7"/>
    <path d="M266 1016c56 26 112 38 174 38 58 0 112-10 166-32" fill="none" stroke="#cdbca8" stroke-width="6" opacity="0.5"/>
  </g>
</svg>
