<svg xmlns="http://www.w3.org/2000/svg" viewBox="0 0 1584 396" role="img" aria-labelledby="title desc">
  <title id="title">JINHEXI LinkedIn Cover</title>
  <desc id="desc">LinkedIn banner for JINHEXI cashmere knitwear.</desc>
  <defs>
    <linearGradient id="bg" x1="0" y1="0" x2="1" y2="1">
      <stop offset="0%" stop-color="#fcf9f4"/>
      <stop offset="100%" stop-color="#eadfce"/>
    </linearGradient>
    <linearGradient id="line" x1="0" y1="0" x2="1" y2="1">
      <stop offset="0%" stop-color="#cab8a5"/>
      <stop offset="100%" stop-color="#8e7f71"/>
    </linearGradient>
  </defs>
  <rect width="1584" height="396" fill="url(#bg)"/>
  <rect x="14" y="14" width="1556" height="368" rx="26" fill="#fffdf9" stroke="url(#line)" stroke-width="2"/>

  <text x="72" y="92" font-family="Arial, Helvetica, sans-serif" font-size="22" font-weight="700" letter-spacing="8" fill="#8d7e6f">JINHEXI</text>
  <text x="72" y="166" font-family="Georgia, 'Times New Roman', serif" font-size="60" font-weight="400" fill="#2f2d2a">Premium Cashmere Knitwear</text>
  <text x="72" y="214" font-family="Arial, Helvetica, sans-serif" font-size="22" fill="#7b6d5f">Refined fit for DTC, Amazon, and wholesale growth.</text>
  <rect x="72" y="248" width="238" height="38" rx="19" fill="#5a544c"/>
  <text x="191" y="273" text-anchor="middle" font-family="Arial, Helvetica, sans-serif" font-size="16" font-weight="700" letter-spacing="4" fill="#f8f4ee">CASHMERE BRAND</text>

  <g transform="translate(1164 66)">
    <rect width="320" height="250" rx="24" fill="#f8f4ed" stroke="#d7c8b6"/>
    <path d="M92 166c18-52 40-82 62-82s44 30 62 82" fill="none" stroke="#3a3734" stroke-width="11" stroke-linecap="round"/>
    <path d="M108 148v-66c0-20 16-36 36-36h0c20 0 36 16 36 36v66" fill="none" stroke="#3a3734" stroke-width="11" stroke-linecap="round" stroke-linejoin="round"/>
    <path d="M154 78v116" stroke="#c7b49f" stroke-width="7" opacity="0.55"/>
  </g>
</svg>
